<?xml version="1.0" encoding="UTF-8" standalone="no"?>
<!DOCTYPE svg PUBLIC "-//W3C//DTD SVG 1.1//EN"
 "http://www.w3.org/Graphics/SVG/1.1/DTD/svg11.dtd">
<!-- Generated by graphviz version 8.0.5 (20230430.1635)
 -->
<!-- Pages: 1 -->
<svg width="595pt" height="770pt"
 viewBox="0.00 0.00 595.00 769.75" xmlns="http://www.w3.org/2000/svg" xmlns:xlink="http://www.w3.org/1999/xlink">
<g id="graph0" class="graph" transform="scale(1 1) rotate(0) translate(4 765.75)">
<polygon fill="white" stroke="none" points="-4,4 -4,-765.75 591,-765.75 591,4 -4,4"/>
<!-- 6084786944 -->
<g id="node1" class="node">
<title>6084786944</title>
<polygon fill="#caff70" stroke="black" points="409,-31.25 339,-31.25 339,0 409,0 409,-31.25"/>
<text text-anchor="middle" x="374" y="-5.75" font-family="monospace" font-size="10.00"> (1, 101)</text>
</g>
<!-- 6082546320 -->
<g id="node2" class="node">
<title>6082546320</title>
<polygon fill="lightgrey" stroke="black" points="424,-86.5 324,-86.5 324,-67.25 424,-67.25 424,-86.5"/>
<text text-anchor="middle" x="374" y="-73" font-family="monospace" font-size="10.00">AddmmBackward0</text>
</g>
<!-- 6082546320&#45;&gt;6084786944 -->
<g id="edge30" class="edge">
<title>6082546320&#45;&gt;6084786944</title>
<path fill="none" stroke="black" d="M374,-66.88C374,-60.39 374,-51.29 374,-42.62"/>
<polygon fill="black" stroke="black" points="377.5,-42.71 374,-32.71 370.5,-42.71 377.5,-42.71"/>
</g>
<!-- 6082559952 -->
<g id="node3" class="node">
<title>6082559952</title>
<polygon fill="lightgrey" stroke="black" points="309,-141.75 209,-141.75 209,-122.5 309,-122.5 309,-141.75"/>
<text text-anchor="middle" x="259" y="-128.25" font-family="monospace" font-size="10.00">AccumulateGrad</text>
</g>
<!-- 6082559952&#45;&gt;6082546320 -->
<g id="edge1" class="edge">
<title>6082559952&#45;&gt;6082546320</title>
<path fill="none" stroke="black" d="M278.51,-122.09C296.6,-113.72 323.77,-101.13 344.51,-91.53"/>
<polygon fill="black" stroke="black" points="345.79,-94.33 353.4,-86.95 342.85,-87.98 345.79,-94.33"/>
</g>
<!-- 11230101568 -->
<g id="node4" class="node">
<title>11230101568</title>
<polygon fill="lightblue" stroke="black" points="291,-208.25 227,-208.25 227,-177.75 291,-177.75 291,-208.25"/>
<text text-anchor="middle" x="259" y="-194.75" font-family="monospace" font-size="10.00">fc2.bias</text>
<text text-anchor="middle" x="259" y="-183.5" font-family="monospace" font-size="10.00"> (101)</text>
</g>
<!-- 11230101568&#45;&gt;6082559952 -->
<g id="edge2" class="edge">
<title>11230101568&#45;&gt;6082559952</title>
<path fill="none" stroke="black" d="M259,-177.45C259,-170.12 259,-161.12 259,-153.16"/>
<polygon fill="black" stroke="black" points="262.5,-153.2 259,-143.2 255.5,-153.2 262.5,-153.2"/>
</g>
<!-- 6082546080 -->
<g id="node5" class="node">
<title>6082546080</title>
<polygon fill="lightgrey" stroke="black" points="421,-141.75 327,-141.75 327,-122.5 421,-122.5 421,-141.75"/>
<text text-anchor="middle" x="374" y="-128.25" font-family="monospace" font-size="10.00">ReluBackward0</text>
</g>
<!-- 6082546080&#45;&gt;6082546320 -->
<g id="edge3" class="edge">
<title>6082546080&#45;&gt;6082546320</title>
<path fill="none" stroke="black" d="M374,-122.33C374,-115.67 374,-106.24 374,-97.78"/>
<polygon fill="black" stroke="black" points="377.5,-97.86 374,-87.86 370.5,-97.86 377.5,-97.86"/>
</g>
<!-- 5923878848 -->
<g id="node6" class="node">
<title>5923878848</title>
<polygon fill="lightgrey" stroke="black" points="416,-202.62 316,-202.62 316,-183.38 416,-183.38 416,-202.62"/>
<text text-anchor="middle" x="366" y="-189.12" font-family="monospace" font-size="10.00">AddmmBackward0</text>
</g>
<!-- 5923878848&#45;&gt;6082546080 -->
<g id="edge4" class="edge">
<title>5923878848&#45;&gt;6082546080</title>
<path fill="none" stroke="black" d="M367.22,-183.06C368.3,-175.1 369.91,-163.19 371.3,-152.99"/>
<polygon fill="black" stroke="black" points="374.9,-153.53 372.77,-143.15 367.96,-152.59 374.9,-153.53"/>
</g>
<!-- 5923878896 -->
<g id="node7" class="node">
<title>5923878896</title>
<polygon fill="lightgrey" stroke="black" points="266,-269.12 166,-269.12 166,-249.88 266,-249.88 266,-269.12"/>
<text text-anchor="middle" x="216" y="-255.62" font-family="monospace" font-size="10.00">AccumulateGrad</text>
</g>
<!-- 5923878896&#45;&gt;5923878848 -->
<g id="edge5" class="edge">
<title>5923878896&#45;&gt;5923878848</title>
<path fill="none" stroke="black" d="M237.17,-249.4C262.63,-238.45 305.59,-219.98 334.84,-207.4"/>
<polygon fill="black" stroke="black" points="336.13,-210.22 343.93,-203.06 333.37,-203.79 336.13,-210.22"/>
</g>
<!-- 11230107568 -->
<g id="node8" class="node">
<title>11230107568</title>
<polygon fill="lightblue" stroke="black" points="233,-341.25 169,-341.25 169,-310.75 233,-310.75 233,-341.25"/>
<text text-anchor="middle" x="201" y="-327.75" font-family="monospace" font-size="10.00">fc1.bias</text>
<text text-anchor="middle" x="201" y="-316.5" font-family="monospace" font-size="10.00"> (512)</text>
</g>
<!-- 11230107568&#45;&gt;5923878896 -->
<g id="edge6" class="edge">
<title>11230107568&#45;&gt;5923878896</title>
<path fill="none" stroke="black" d="M204.4,-310.36C206.49,-301.38 209.19,-289.76 211.46,-280.01"/>
<polygon fill="black" stroke="black" points="215.09,-280.86 213.95,-270.32 208.27,-279.27 215.09,-280.86"/>
</g>
<!-- 5923872176 -->
<g id="node9" class="node">
<title>5923872176</title>
<polygon fill="lightgrey" stroke="black" points="393,-269.12 299,-269.12 299,-249.88 393,-249.88 393,-269.12"/>
<text text-anchor="middle" x="346" y="-255.62" font-family="monospace" font-size="10.00">ViewBackward0</text>
</g>
<!-- 5923872176&#45;&gt;5923878848 -->
<g id="edge7" class="edge">
<title>5923872176&#45;&gt;5923878848</title>
<path fill="none" stroke="black" d="M348.78,-249.53C351.68,-240.19 356.3,-225.28 360.03,-213.26"/>
<polygon fill="black" stroke="black" points="363.62,-214.48 363.24,-203.89 356.94,-212.41 363.62,-214.48"/>
</g>
<!-- 5923879952 -->
<g id="node10" class="node">
<title>5923879952</title>
<polygon fill="lightgrey" stroke="black" points="441,-335.62 251,-335.62 251,-316.38 441,-316.38 441,-335.62"/>
<text text-anchor="middle" x="346" y="-322.12" font-family="monospace" font-size="10.00">MaxPool2DWithIndicesBackward0</text>
</g>
<!-- 5923879952&#45;&gt;5923872176 -->
<g id="edge8" class="edge">
<title>5923879952&#45;&gt;5923872176</title>
<path fill="none" stroke="black" d="M346,-316.03C346,-306.79 346,-292.08 346,-280.13"/>
<polygon fill="black" stroke="black" points="349.5,-280.39 346,-270.39 342.5,-280.39 349.5,-280.39"/>
</g>
<!-- 5923865264 -->
<g id="node11" class="node">
<title>5923865264</title>
<polygon fill="lightgrey" stroke="black" points="393,-402.12 299,-402.12 299,-382.88 393,-382.88 393,-402.12"/>
<text text-anchor="middle" x="346" y="-388.62" font-family="monospace" font-size="10.00">ReluBackward0</text>
</g>
<!-- 5923865264&#45;&gt;5923879952 -->
<g id="edge9" class="edge">
<title>5923865264&#45;&gt;5923879952</title>
<path fill="none" stroke="black" d="M346,-382.53C346,-373.29 346,-358.58 346,-346.63"/>
<polygon fill="black" stroke="black" points="349.5,-346.89 346,-336.89 342.5,-346.89 349.5,-346.89"/>
</g>
<!-- 5923880624 -->
<g id="node12" class="node">
<title>5923880624</title>
<polygon fill="lightgrey" stroke="black" points="414,-463 278,-463 278,-443.75 414,-443.75 414,-463"/>
<text text-anchor="middle" x="346" y="-449.5" font-family="monospace" font-size="10.00">ConvolutionBackward0</text>
</g>
<!-- 5923880624&#45;&gt;5923865264 -->
<g id="edge10" class="edge">
<title>5923880624&#45;&gt;5923865264</title>
<path fill="none" stroke="black" d="M346,-443.43C346,-435.48 346,-423.56 346,-413.37"/>
<polygon fill="black" stroke="black" points="349.5,-413.53 346,-403.53 342.5,-413.53 349.5,-413.53"/>
</g>
<!-- 5923876592 -->
<g id="node13" class="node">
<title>5923876592</title>
<polygon fill="lightgrey" stroke="black" points="278,-518.25 88,-518.25 88,-499 278,-499 278,-518.25"/>
<text text-anchor="middle" x="183" y="-504.75" font-family="monospace" font-size="10.00">MaxPool2DWithIndicesBackward0</text>
</g>
<!-- 5923876592&#45;&gt;5923880624 -->
<g id="edge11" class="edge">
<title>5923876592&#45;&gt;5923880624</title>
<path fill="none" stroke="black" d="M210.65,-498.59C237.35,-489.87 277.99,-476.59 307.78,-466.86"/>
<polygon fill="black" stroke="black" points="308.79,-469.88 317.21,-463.45 306.62,-463.23 308.79,-469.88"/>
</g>
<!-- 5923877552 -->
<g id="node14" class="node">
<title>5923877552</title>
<polygon fill="lightgrey" stroke="black" points="230,-579.12 136,-579.12 136,-559.88 230,-559.88 230,-579.12"/>
<text text-anchor="middle" x="183" y="-565.62" font-family="monospace" font-size="10.00">ReluBackward0</text>
</g>
<!-- 5923877552&#45;&gt;5923876592 -->
<g id="edge12" class="edge">
<title>5923877552&#45;&gt;5923876592</title>
<path fill="none" stroke="black" d="M183,-559.56C183,-551.6 183,-539.69 183,-529.49"/>
<polygon fill="black" stroke="black" points="186.5,-529.65 183,-519.65 179.5,-529.65 186.5,-529.65"/>
</g>
<!-- 5923878176 -->
<g id="node15" class="node">
<title>5923878176</title>
<polygon fill="lightgrey" stroke="black" points="251,-640 115,-640 115,-620.75 251,-620.75 251,-640"/>
<text text-anchor="middle" x="183" y="-626.5" font-family="monospace" font-size="10.00">ConvolutionBackward0</text>
</g>
<!-- 5923878176&#45;&gt;5923877552 -->
<g id="edge13" class="edge">
<title>5923878176&#45;&gt;5923877552</title>
<path fill="none" stroke="black" d="M183,-620.43C183,-612.48 183,-600.56 183,-590.37"/>
<polygon fill="black" stroke="black" points="186.5,-590.53 183,-580.53 179.5,-590.53 186.5,-590.53"/>
</g>
<!-- 5923879712 -->
<g id="node16" class="node">
<title>5923879712</title>
<polygon fill="lightgrey" stroke="black" points="113,-695.25 13,-695.25 13,-676 113,-676 113,-695.25"/>
<text text-anchor="middle" x="63" y="-681.75" font-family="monospace" font-size="10.00">AccumulateGrad</text>
</g>
<!-- 5923879712&#45;&gt;5923878176 -->
<g id="edge14" class="edge">
<title>5923879712&#45;&gt;5923878176</title>
<path fill="none" stroke="black" d="M83.36,-675.59C102.32,-667.18 130.85,-654.52 152.52,-644.9"/>
<polygon fill="black" stroke="black" points="153.82,-647.71 161.54,-640.45 150.98,-641.31 153.82,-647.71"/>
</g>
<!-- 5760268736 -->
<g id="node17" class="node">
<title>5760268736</title>
<polygon fill="lightblue" stroke="black" points="118,-761.75 0,-761.75 0,-731.25 118,-731.25 118,-761.75"/>
<text text-anchor="middle" x="59" y="-748.25" font-family="monospace" font-size="10.00">x</text>
<text text-anchor="middle" x="59" y="-737" font-family="monospace" font-size="10.00"> (1, 3, 224, 224)</text>
</g>
<!-- 5760268736&#45;&gt;5923879712 -->
<g id="edge15" class="edge">
<title>5760268736&#45;&gt;5923879712</title>
<path fill="none" stroke="black" d="M59.99,-730.95C60.49,-723.62 61.1,-714.62 61.64,-706.66"/>
<polygon fill="black" stroke="black" points="65.2,-706.92 62.38,-696.7 58.21,-706.44 65.2,-706.92"/>
</g>
<!-- 5923865648 -->
<g id="node18" class="node">
<title>5923865648</title>
<polygon fill="lightgrey" stroke="black" points="233,-695.25 133,-695.25 133,-676 233,-676 233,-695.25"/>
<text text-anchor="middle" x="183" y="-681.75" font-family="monospace" font-size="10.00">AccumulateGrad</text>
</g>
<!-- 5923865648&#45;&gt;5923878176 -->
<g id="edge16" class="edge">
<title>5923865648&#45;&gt;5923878176</title>
<path fill="none" stroke="black" d="M183,-675.83C183,-669.17 183,-659.74 183,-651.28"/>
<polygon fill="black" stroke="black" points="186.5,-651.36 183,-641.36 179.5,-651.36 186.5,-651.36"/>
</g>
<!-- 6083090992 -->
<g id="node19" class="node">
<title>6083090992</title>
<polygon fill="lightblue" stroke="black" points="236,-761.75 136,-761.75 136,-731.25 236,-731.25 236,-761.75"/>
<text text-anchor="middle" x="186" y="-748.25" font-family="monospace" font-size="10.00">conv1.weight</text>
<text text-anchor="middle" x="186" y="-737" font-family="monospace" font-size="10.00"> (32, 3, 3, 3)</text>
</g>
<!-- 6083090992&#45;&gt;5923865648 -->
<g id="edge17" class="edge">
<title>6083090992&#45;&gt;5923865648</title>
<path fill="none" stroke="black" d="M185.26,-730.95C184.89,-723.62 184.43,-714.62 184.02,-706.66"/>
<polygon fill="black" stroke="black" points="187.47,-706.51 183.46,-696.7 180.48,-706.87 187.47,-706.51"/>
</g>
<!-- 5923877648 -->
<g id="node20" class="node">
<title>5923877648</title>
<polygon fill="lightgrey" stroke="black" points="351,-695.25 251,-695.25 251,-676 351,-676 351,-695.25"/>
<text text-anchor="middle" x="301" y="-681.75" font-family="monospace" font-size="10.00">AccumulateGrad</text>
</g>
<!-- 5923877648&#45;&gt;5923878176 -->
<g id="edge18" class="edge">
<title>5923877648&#45;&gt;5923878176</title>
<path fill="none" stroke="black" d="M280.98,-675.59C262.34,-667.18 234.28,-654.52 212.97,-644.9"/>
<polygon fill="black" stroke="black" points="214.67,-641.38 204.12,-640.45 211.79,-647.76 214.67,-641.38"/>
</g>
<!-- 11230112608 -->
<g id="node21" class="node">
<title>11230112608</title>
<polygon fill="lightblue" stroke="black" points="339,-761.75 263,-761.75 263,-731.25 339,-731.25 339,-761.75"/>
<text text-anchor="middle" x="301" y="-748.25" font-family="monospace" font-size="10.00">conv1.bias</text>
<text text-anchor="middle" x="301" y="-737" font-family="monospace" font-size="10.00"> (32)</text>
</g>
<!-- 11230112608&#45;&gt;5923877648 -->
<g id="edge19" class="edge">
<title>11230112608&#45;&gt;5923877648</title>
<path fill="none" stroke="black" d="M301,-730.95C301,-723.62 301,-714.62 301,-706.66"/>
<polygon fill="black" stroke="black" points="304.5,-706.7 301,-696.7 297.5,-706.7 304.5,-706.7"/>
</g>
<!-- 5923873088 -->
<g id="node22" class="node">
<title>5923873088</title>
<polygon fill="lightgrey" stroke="black" points="396,-518.25 296,-518.25 296,-499 396,-499 396,-518.25"/>
<text text-anchor="middle" x="346" y="-504.75" font-family="monospace" font-size="10.00">AccumulateGrad</text>
</g>
<!-- 5923873088&#45;&gt;5923880624 -->
<g id="edge20" class="edge">
<title>5923873088&#45;&gt;5923880624</title>
<path fill="none" stroke="black" d="M346,-498.83C346,-492.17 346,-482.74 346,-474.28"/>
<polygon fill="black" stroke="black" points="349.5,-474.36 346,-464.36 342.5,-474.36 349.5,-474.36"/>
</g>
<!-- 6084541984 -->
<g id="node23" class="node">
<title>6084541984</title>
<polygon fill="lightblue" stroke="black" points="399,-584.75 293,-584.75 293,-554.25 399,-554.25 399,-584.75"/>
<text text-anchor="middle" x="346" y="-571.25" font-family="monospace" font-size="10.00">conv2.weight</text>
<text text-anchor="middle" x="346" y="-560" font-family="monospace" font-size="10.00"> (64, 32, 3, 3)</text>
</g>
<!-- 6084541984&#45;&gt;5923873088 -->
<g id="edge21" class="edge">
<title>6084541984&#45;&gt;5923873088</title>
<path fill="none" stroke="black" d="M346,-553.95C346,-546.62 346,-537.62 346,-529.66"/>
<polygon fill="black" stroke="black" points="349.5,-529.7 346,-519.7 342.5,-529.7 349.5,-529.7"/>
</g>
<!-- 5923865120 -->
<g id="node24" class="node">
<title>5923865120</title>
<polygon fill="lightgrey" stroke="black" points="514,-518.25 414,-518.25 414,-499 514,-499 514,-518.25"/>
<text text-anchor="middle" x="464" y="-504.75" font-family="monospace" font-size="10.00">AccumulateGrad</text>
</g>
<!-- 5923865120&#45;&gt;5923880624 -->
<g id="edge22" class="edge">
<title>5923865120&#45;&gt;5923880624</title>
<path fill="none" stroke="black" d="M443.98,-498.59C425.34,-490.18 397.28,-477.52 375.97,-467.9"/>
<polygon fill="black" stroke="black" points="377.67,-464.38 367.12,-463.45 374.79,-470.76 377.67,-464.38"/>
</g>
<!-- 5923954400 -->
<g id="node25" class="node">
<title>5923954400</title>
<polygon fill="lightblue" stroke="black" points="502,-584.75 426,-584.75 426,-554.25 502,-554.25 502,-584.75"/>
<text text-anchor="middle" x="464" y="-571.25" font-family="monospace" font-size="10.00">conv2.bias</text>
<text text-anchor="middle" x="464" y="-560" font-family="monospace" font-size="10.00"> (64)</text>
</g>
<!-- 5923954400&#45;&gt;5923865120 -->
<g id="edge23" class="edge">
<title>5923954400&#45;&gt;5923865120</title>
<path fill="none" stroke="black" d="M464,-553.95C464,-546.62 464,-537.62 464,-529.66"/>
<polygon fill="black" stroke="black" points="467.5,-529.7 464,-519.7 460.5,-529.7 467.5,-529.7"/>
</g>
<!-- 5923868960 -->
<g id="node26" class="node">
<title>5923868960</title>
<polygon fill="lightgrey" stroke="black" points="487,-269.12 411,-269.12 411,-249.88 487,-249.88 487,-269.12"/>
<text text-anchor="middle" x="449" y="-255.62" font-family="monospace" font-size="10.00">TBackward0</text>
</g>
<!-- 5923868960&#45;&gt;5923878848 -->
<g id="edge24" class="edge">
<title>5923868960&#45;&gt;5923878848</title>
<path fill="none" stroke="black" d="M437.46,-249.53C424.15,-239.19 402.05,-222.02 385.95,-209.5"/>
<polygon fill="black" stroke="black" points="388.75,-206.47 378.71,-203.1 384.46,-212 388.75,-206.47"/>
</g>
<!-- 5923865792 -->
<g id="node27" class="node">
<title>5923865792</title>
<polygon fill="lightgrey" stroke="black" points="559,-335.62 459,-335.62 459,-316.38 559,-316.38 559,-335.62"/>
<text text-anchor="middle" x="509" y="-322.12" font-family="monospace" font-size="10.00">AccumulateGrad</text>
</g>
<!-- 5923865792&#45;&gt;5923868960 -->
<g id="edge25" class="edge">
<title>5923865792&#45;&gt;5923868960</title>
<path fill="none" stroke="black" d="M500.66,-316.03C491.34,-306.02 476.07,-289.6 464.54,-277.2"/>
<polygon fill="black" stroke="black" points="467.65,-275.33 458.27,-270.39 462.52,-280.1 467.65,-275.33"/>
</g>
<!-- 6084533664 -->
<g id="node28" class="node">
<title>6084533664</title>
<polygon fill="lightblue" stroke="black" points="559,-407.75 459,-407.75 459,-377.25 559,-377.25 559,-407.75"/>
<text text-anchor="middle" x="509" y="-394.25" font-family="monospace" font-size="10.00">fc1.weight</text>
<text text-anchor="middle" x="509" y="-383" font-family="monospace" font-size="10.00"> (512, 200704)</text>
</g>
<!-- 6084533664&#45;&gt;5923865792 -->
<g id="edge26" class="edge">
<title>6084533664&#45;&gt;5923865792</title>
<path fill="none" stroke="black" d="M509,-376.86C509,-367.88 509,-356.26 509,-346.51"/>
<polygon fill="black" stroke="black" points="512.5,-346.82 509,-336.82 505.5,-346.82 512.5,-346.82"/>
</g>
<!-- 6082556208 -->
<g id="node29" class="node">
<title>6082556208</title>
<polygon fill="lightgrey" stroke="black" points="539,-141.75 463,-141.75 463,-122.5 539,-122.5 539,-141.75"/>
<text text-anchor="middle" x="501" y="-128.25" font-family="monospace" font-size="10.00">TBackward0</text>
</g>
<!-- 6082556208&#45;&gt;6082546320 -->
<g id="edge27" class="edge">
<title>6082556208&#45;&gt;6082546320</title>
<path fill="none" stroke="black" d="M479.46,-122.09C459.2,-113.6 428.65,-100.79 405.63,-91.14"/>
<polygon fill="black" stroke="black" points="407.23,-87.59 396.65,-86.95 404.52,-94.05 407.23,-87.59"/>
</g>
<!-- 5923876736 -->
<g id="node30" class="node">
<title>5923876736</title>
<polygon fill="lightgrey" stroke="black" points="575,-202.62 475,-202.62 475,-183.38 575,-183.38 575,-202.62"/>
<text text-anchor="middle" x="525" y="-189.12" font-family="monospace" font-size="10.00">AccumulateGrad</text>
</g>
<!-- 5923876736&#45;&gt;6082556208 -->
<g id="edge28" class="edge">
<title>5923876736&#45;&gt;6082556208</title>
<path fill="none" stroke="black" d="M521.35,-183.06C518.04,-174.93 513.04,-162.67 508.83,-152.33"/>
<polygon fill="black" stroke="black" points="511.7,-151.09 504.68,-143.15 505.21,-153.73 511.7,-151.09"/>
</g>
<!-- 11230101968 -->
<g id="node31" class="node">
<title>11230101968</title>
<polygon fill="lightblue" stroke="black" points="587,-274.75 505,-274.75 505,-244.25 587,-244.25 587,-274.75"/>
<text text-anchor="middle" x="546" y="-261.25" font-family="monospace" font-size="10.00">fc2.weight</text>
<text text-anchor="middle" x="546" y="-250" font-family="monospace" font-size="10.00"> (101, 512)</text>
</g>
<!-- 11230101968&#45;&gt;5923876736 -->
<g id="edge29" class="edge">
<title>11230101968&#45;&gt;5923876736</title>
<path fill="none" stroke="black" d="M541.23,-243.86C538.28,-234.78 534.44,-223.01 531.25,-213.18"/>
<polygon fill="black" stroke="black" points="534.3,-212.25 527.87,-203.82 527.64,-214.41 534.3,-212.25"/>
</g>
</g>
</svg>
