<?xml version="1.0" encoding="UTF-8" standalone="no"?>
<!DOCTYPE svg PUBLIC "-//W3C//DTD SVG 1.1//EN"
 "http://www.w3.org/Graphics/SVG/1.1/DTD/svg11.dtd">
<!-- Generated by graphviz version 8.0.5 (20230430.1635)
 -->
<!-- Pages: 1 -->
<svg width="727pt" height="815pt"
 viewBox="0.00 0.00 727.00 814.50" xmlns="http://www.w3.org/2000/svg" xmlns:xlink="http://www.w3.org/1999/xlink">
<g id="graph0" class="graph" transform="scale(1 1) rotate(0) translate(4 810.5)">
<polygon fill="white" stroke="none" points="-4,4 -4,-810.5 723,-810.5 723,4 -4,4"/>
<!-- 11205043888 -->
<g id="node1" class="node">
<title>11205043888</title>
<polygon fill="#caff70" stroke="black" points="586,-31.25 516,-31.25 516,0 586,0 586,-31.25"/>
<text text-anchor="middle" x="551" y="-5.75" font-family="monospace" font-size="10.00"> (1, 101)</text>
</g>
<!-- 11204948704 -->
<g id="node2" class="node">
<title>11204948704</title>
<polygon fill="lightgrey" stroke="black" points="604,-86.5 498,-86.5 498,-67.25 604,-67.25 604,-86.5"/>
<text text-anchor="middle" x="551" y="-73" font-family="monospace" font-size="10.00">LinearBackward0</text>
</g>
<!-- 11204948704&#45;&gt;11205043888 -->
<g id="edge29" class="edge">
<title>11204948704&#45;&gt;11205043888</title>
<path fill="none" stroke="black" d="M551,-66.88C551,-60.39 551,-51.29 551,-42.62"/>
<polygon fill="black" stroke="black" points="554.5,-42.71 551,-32.71 547.5,-42.71 554.5,-42.71"/>
</g>
<!-- 11204949616 -->
<g id="node3" class="node">
<title>11204949616</title>
<polygon fill="lightgrey" stroke="black" points="483,-141.75 389,-141.75 389,-122.5 483,-122.5 483,-141.75"/>
<text text-anchor="middle" x="436" y="-128.25" font-family="monospace" font-size="10.00">ReluBackward0</text>
</g>
<!-- 11204949616&#45;&gt;11204948704 -->
<g id="edge1" class="edge">
<title>11204949616&#45;&gt;11204948704</title>
<path fill="none" stroke="black" d="M455.51,-122.09C473.6,-113.72 500.77,-101.13 521.51,-91.53"/>
<polygon fill="black" stroke="black" points="522.79,-94.33 530.4,-86.95 519.85,-87.98 522.79,-94.33"/>
</g>
<!-- 11204948896 -->
<g id="node4" class="node">
<title>11204948896</title>
<polygon fill="lightgrey" stroke="black" points="489,-202.62 383,-202.62 383,-183.38 489,-183.38 489,-202.62"/>
<text text-anchor="middle" x="436" y="-189.12" font-family="monospace" font-size="10.00">LinearBackward0</text>
</g>
<!-- 11204948896&#45;&gt;11204949616 -->
<g id="edge2" class="edge">
<title>11204948896&#45;&gt;11204949616</title>
<path fill="none" stroke="black" d="M436,-183.06C436,-175.1 436,-163.19 436,-152.99"/>
<polygon fill="black" stroke="black" points="439.5,-153.15 436,-143.15 432.5,-153.15 439.5,-153.15"/>
</g>
<!-- 11204943904 -->
<g id="node5" class="node">
<title>11204943904</title>
<polygon fill="lightgrey" stroke="black" points="364,-263.5 270,-263.5 270,-244.25 364,-244.25 364,-263.5"/>
<text text-anchor="middle" x="317" y="-250" font-family="monospace" font-size="10.00">ViewBackward0</text>
</g>
<!-- 11204943904&#45;&gt;11204948896 -->
<g id="edge3" class="edge">
<title>11204943904&#45;&gt;11204948896</title>
<path fill="none" stroke="black" d="M335.33,-243.8C354.78,-234.18 385.74,-218.87 408.2,-207.76"/>
<polygon fill="black" stroke="black" points="409.43,-210.56 416.84,-202.98 406.33,-204.28 409.43,-210.56"/>
</g>
<!-- 11204943712 -->
<g id="node6" class="node">
<title>11204943712</title>
<polygon fill="lightgrey" stroke="black" points="372,-324.38 248,-324.38 248,-305.12 372,-305.12 372,-324.38"/>
<text text-anchor="middle" x="310" y="-310.88" font-family="monospace" font-size="10.00">MaxPool2DBackward0</text>
</g>
<!-- 11204943712&#45;&gt;11204943904 -->
<g id="edge4" class="edge">
<title>11204943712&#45;&gt;11204943904</title>
<path fill="none" stroke="black" d="M311.06,-304.81C312.01,-296.85 313.43,-284.94 314.64,-274.74"/>
<polygon fill="black" stroke="black" points="318.22,-275.24 315.93,-264.9 311.27,-274.42 318.22,-275.24"/>
</g>
<!-- 11204944000 -->
<g id="node7" class="node">
<title>11204944000</title>
<polygon fill="lightgrey" stroke="black" points="357,-385.25 263,-385.25 263,-366 357,-366 357,-385.25"/>
<text text-anchor="middle" x="310" y="-371.75" font-family="monospace" font-size="10.00">ReluBackward0</text>
</g>
<!-- 11204944000&#45;&gt;11204943712 -->
<g id="edge5" class="edge">
<title>11204944000&#45;&gt;11204943712</title>
<path fill="none" stroke="black" d="M310,-365.68C310,-357.73 310,-345.81 310,-335.62"/>
<polygon fill="black" stroke="black" points="313.5,-335.78 310,-325.78 306.5,-335.78 313.5,-335.78"/>
</g>
<!-- 11204946736 -->
<g id="node8" class="node">
<title>11204946736</title>
<polygon fill="lightgrey" stroke="black" points="378,-440.5 242,-440.5 242,-421.25 378,-421.25 378,-440.5"/>
<text text-anchor="middle" x="310" y="-427" font-family="monospace" font-size="10.00">ConvolutionBackward0</text>
</g>
<!-- 11204946736&#45;&gt;11204944000 -->
<g id="edge6" class="edge">
<title>11204946736&#45;&gt;11204944000</title>
<path fill="none" stroke="black" d="M310,-421.08C310,-414.42 310,-404.99 310,-396.53"/>
<polygon fill="black" stroke="black" points="313.5,-396.61 310,-386.61 306.5,-396.61 313.5,-396.61"/>
</g>
<!-- 11204946352 -->
<g id="node9" class="node">
<title>11204946352</title>
<polygon fill="lightgrey" stroke="black" points="242,-495.75 118,-495.75 118,-476.5 242,-476.5 242,-495.75"/>
<text text-anchor="middle" x="180" y="-482.25" font-family="monospace" font-size="10.00">MaxPool2DBackward0</text>
</g>
<!-- 11204946352&#45;&gt;11204946736 -->
<g id="edge7" class="edge">
<title>11204946352&#45;&gt;11204946736</title>
<path fill="none" stroke="black" d="M202.05,-476.09C222.88,-467.56 254.34,-454.67 277.94,-445.01"/>
<polygon fill="black" stroke="black" points="278.91,-447.98 286.84,-440.95 276.26,-441.5 278.91,-447.98"/>
</g>
<!-- 11204942896 -->
<g id="node10" class="node">
<title>11204942896</title>
<polygon fill="lightgrey" stroke="black" points="227,-556.62 133,-556.62 133,-537.38 227,-537.38 227,-556.62"/>
<text text-anchor="middle" x="180" y="-543.12" font-family="monospace" font-size="10.00">ReluBackward0</text>
</g>
<!-- 11204942896&#45;&gt;11204946352 -->
<g id="edge8" class="edge">
<title>11204942896&#45;&gt;11204946352</title>
<path fill="none" stroke="black" d="M180,-537.06C180,-529.1 180,-517.19 180,-506.99"/>
<polygon fill="black" stroke="black" points="183.5,-507.15 180,-497.15 176.5,-507.15 183.5,-507.15"/>
</g>
<!-- 11204939584 -->
<g id="node11" class="node">
<title>11204939584</title>
<polygon fill="lightgrey" stroke="black" points="248,-617.5 112,-617.5 112,-598.25 248,-598.25 248,-617.5"/>
<text text-anchor="middle" x="180" y="-604" font-family="monospace" font-size="10.00">ConvolutionBackward0</text>
</g>
<!-- 11204939584&#45;&gt;11204942896 -->
<g id="edge9" class="edge">
<title>11204939584&#45;&gt;11204942896</title>
<path fill="none" stroke="black" d="M180,-597.93C180,-589.98 180,-578.06 180,-567.87"/>
<polygon fill="black" stroke="black" points="183.5,-568.03 180,-558.03 176.5,-568.03 183.5,-568.03"/>
</g>
<!-- 11204939200 -->
<g id="node12" class="node">
<title>11204939200</title>
<polygon fill="lightgrey" stroke="black" points="112,-672.75 6,-672.75 6,-653.5 112,-653.5 112,-672.75"/>
<text text-anchor="middle" x="59" y="-659.25" font-family="monospace" font-size="10.00">ToCopyBackward0</text>
</g>
<!-- 11204939200&#45;&gt;11204939584 -->
<g id="edge10" class="edge">
<title>11204939200&#45;&gt;11204939584</title>
<path fill="none" stroke="black" d="M79.53,-653.09C98.73,-644.64 127.67,-631.9 149.57,-622.27"/>
<polygon fill="black" stroke="black" points="150.63,-625.18 158.37,-617.95 147.81,-618.78 150.63,-625.18"/>
</g>
<!-- 11204939344 -->
<g id="node13" class="node">
<title>11204939344</title>
<polygon fill="lightgrey" stroke="black" points="109,-733.62 9,-733.62 9,-714.38 109,-714.38 109,-733.62"/>
<text text-anchor="middle" x="59" y="-720.12" font-family="monospace" font-size="10.00">AccumulateGrad</text>
</g>
<!-- 11204939344&#45;&gt;11204939200 -->
<g id="edge11" class="edge">
<title>11204939344&#45;&gt;11204939200</title>
<path fill="none" stroke="black" d="M59,-714.06C59,-706.1 59,-694.19 59,-683.99"/>
<polygon fill="black" stroke="black" points="62.5,-684.15 59,-674.15 55.5,-684.15 62.5,-684.15"/>
</g>
<!-- 11203851696 -->
<g id="node14" class="node">
<title>11203851696</title>
<polygon fill="lightblue" stroke="black" points="118,-806.5 0,-806.5 0,-775.25 118,-775.25 118,-806.5"/>
<text text-anchor="middle" x="59" y="-781" font-family="monospace" font-size="10.00"> (1, 3, 224, 224)</text>
</g>
<!-- 11203851696&#45;&gt;11204939344 -->
<g id="edge12" class="edge">
<title>11203851696&#45;&gt;11204939344</title>
<path fill="none" stroke="black" d="M59,-774.83C59,-765.88 59,-754.42 59,-744.75"/>
<polygon fill="black" stroke="black" points="62.5,-744.78 59,-734.78 55.5,-744.78 62.5,-744.78"/>
</g>
<!-- 11204939056 -->
<g id="node15" class="node">
<title>11204939056</title>
<polygon fill="lightgrey" stroke="black" points="230,-672.75 130,-672.75 130,-653.5 230,-653.5 230,-672.75"/>
<text text-anchor="middle" x="180" y="-659.25" font-family="monospace" font-size="10.00">AccumulateGrad</text>
</g>
<!-- 11204939056&#45;&gt;11204939584 -->
<g id="edge13" class="edge">
<title>11204939056&#45;&gt;11204939584</title>
<path fill="none" stroke="black" d="M180,-653.33C180,-646.67 180,-637.24 180,-628.78"/>
<polygon fill="black" stroke="black" points="183.5,-628.86 180,-618.86 176.5,-628.86 183.5,-628.86"/>
</g>
<!-- 11203986752 -->
<g id="node16" class="node">
<title>11203986752</title>
<polygon fill="lightblue" stroke="black" points="230,-739.25 130,-739.25 130,-708.75 230,-708.75 230,-739.25"/>
<text text-anchor="middle" x="180" y="-725.75" font-family="monospace" font-size="10.00">conv1.weight</text>
<text text-anchor="middle" x="180" y="-714.5" font-family="monospace" font-size="10.00"> (32, 3, 3, 3)</text>
</g>
<!-- 11203986752&#45;&gt;11204939056 -->
<g id="edge14" class="edge">
<title>11203986752&#45;&gt;11204939056</title>
<path fill="none" stroke="black" d="M180,-708.45C180,-701.12 180,-692.12 180,-684.16"/>
<polygon fill="black" stroke="black" points="183.5,-684.2 180,-674.2 176.5,-684.2 183.5,-684.2"/>
</g>
<!-- 11204945344 -->
<g id="node17" class="node">
<title>11204945344</title>
<polygon fill="lightgrey" stroke="black" points="348,-672.75 248,-672.75 248,-653.5 348,-653.5 348,-672.75"/>
<text text-anchor="middle" x="298" y="-659.25" font-family="monospace" font-size="10.00">AccumulateGrad</text>
</g>
<!-- 11204945344&#45;&gt;11204939584 -->
<g id="edge15" class="edge">
<title>11204945344&#45;&gt;11204939584</title>
<path fill="none" stroke="black" d="M277.98,-653.09C259.34,-644.68 231.28,-632.02 209.97,-622.4"/>
<polygon fill="black" stroke="black" points="211.67,-618.88 201.12,-617.95 208.79,-625.26 211.67,-618.88"/>
</g>
<!-- 6439100448 -->
<g id="node18" class="node">
<title>6439100448</title>
<polygon fill="lightblue" stroke="black" points="336,-739.25 260,-739.25 260,-708.75 336,-708.75 336,-739.25"/>
<text text-anchor="middle" x="298" y="-725.75" font-family="monospace" font-size="10.00">conv1.bias</text>
<text text-anchor="middle" x="298" y="-714.5" font-family="monospace" font-size="10.00"> (32)</text>
</g>
<!-- 6439100448&#45;&gt;11204945344 -->
<g id="edge16" class="edge">
<title>6439100448&#45;&gt;11204945344</title>
<path fill="none" stroke="black" d="M298,-708.45C298,-701.12 298,-692.12 298,-684.16"/>
<polygon fill="black" stroke="black" points="301.5,-684.2 298,-674.2 294.5,-684.2 301.5,-684.2"/>
</g>
<!-- 11204946880 -->
<g id="node19" class="node">
<title>11204946880</title>
<polygon fill="lightgrey" stroke="black" points="360,-495.75 260,-495.75 260,-476.5 360,-476.5 360,-495.75"/>
<text text-anchor="middle" x="310" y="-482.25" font-family="monospace" font-size="10.00">AccumulateGrad</text>
</g>
<!-- 11204946880&#45;&gt;11204946736 -->
<g id="edge17" class="edge">
<title>11204946880&#45;&gt;11204946736</title>
<path fill="none" stroke="black" d="M310,-476.33C310,-469.67 310,-460.24 310,-451.78"/>
<polygon fill="black" stroke="black" points="313.5,-451.86 310,-441.86 306.5,-451.86 313.5,-451.86"/>
</g>
<!-- 6108880288 -->
<g id="node20" class="node">
<title>6108880288</title>
<polygon fill="lightblue" stroke="black" points="363,-562.25 257,-562.25 257,-531.75 363,-531.75 363,-562.25"/>
<text text-anchor="middle" x="310" y="-548.75" font-family="monospace" font-size="10.00">conv2.weight</text>
<text text-anchor="middle" x="310" y="-537.5" font-family="monospace" font-size="10.00"> (64, 32, 3, 3)</text>
</g>
<!-- 6108880288&#45;&gt;11204946880 -->
<g id="edge18" class="edge">
<title>6108880288&#45;&gt;11204946880</title>
<path fill="none" stroke="black" d="M310,-531.45C310,-524.12 310,-515.12 310,-507.16"/>
<polygon fill="black" stroke="black" points="313.5,-507.2 310,-497.2 306.5,-507.2 313.5,-507.2"/>
</g>
<!-- 11204949328 -->
<g id="node21" class="node">
<title>11204949328</title>
<polygon fill="lightgrey" stroke="black" points="478,-495.75 378,-495.75 378,-476.5 478,-476.5 478,-495.75"/>
<text text-anchor="middle" x="428" y="-482.25" font-family="monospace" font-size="10.00">AccumulateGrad</text>
</g>
<!-- 11204949328&#45;&gt;11204946736 -->
<g id="edge19" class="edge">
<title>11204949328&#45;&gt;11204946736</title>
<path fill="none" stroke="black" d="M407.98,-476.09C389.34,-467.68 361.28,-455.02 339.97,-445.4"/>
<polygon fill="black" stroke="black" points="341.67,-441.88 331.12,-440.95 338.79,-448.26 341.67,-441.88"/>
</g>
<!-- 6100693568 -->
<g id="node22" class="node">
<title>6100693568</title>
<polygon fill="lightblue" stroke="black" points="466,-562.25 390,-562.25 390,-531.75 466,-531.75 466,-562.25"/>
<text text-anchor="middle" x="428" y="-548.75" font-family="monospace" font-size="10.00">conv2.bias</text>
<text text-anchor="middle" x="428" y="-537.5" font-family="monospace" font-size="10.00"> (64)</text>
</g>
<!-- 6100693568&#45;&gt;11204949328 -->
<g id="edge20" class="edge">
<title>6100693568&#45;&gt;11204949328</title>
<path fill="none" stroke="black" d="M428,-531.45C428,-524.12 428,-515.12 428,-507.16"/>
<polygon fill="black" stroke="black" points="431.5,-507.2 428,-497.2 424.5,-507.2 431.5,-507.2"/>
</g>
<!-- 11204949664 -->
<g id="node23" class="node">
<title>11204949664</title>
<polygon fill="lightgrey" stroke="black" points="486,-263.5 386,-263.5 386,-244.25 486,-244.25 486,-263.5"/>
<text text-anchor="middle" x="436" y="-250" font-family="monospace" font-size="10.00">AccumulateGrad</text>
</g>
<!-- 11204949664&#45;&gt;11204948896 -->
<g id="edge21" class="edge">
<title>11204949664&#45;&gt;11204948896</title>
<path fill="none" stroke="black" d="M436,-243.93C436,-235.98 436,-224.06 436,-213.87"/>
<polygon fill="black" stroke="black" points="439.5,-214.03 436,-204.03 432.5,-214.03 439.5,-214.03"/>
</g>
<!-- 10818232512 -->
<g id="node24" class="node">
<title>10818232512</title>
<polygon fill="lightblue" stroke="black" points="490,-330 390,-330 390,-299.5 490,-299.5 490,-330"/>
<text text-anchor="middle" x="440" y="-316.5" font-family="monospace" font-size="10.00">fc1.weight</text>
<text text-anchor="middle" x="440" y="-305.25" font-family="monospace" font-size="10.00"> (512, 200704)</text>
</g>
<!-- 10818232512&#45;&gt;11204949664 -->
<g id="edge22" class="edge">
<title>10818232512&#45;&gt;11204949664</title>
<path fill="none" stroke="black" d="M439.01,-299.2C438.51,-291.87 437.9,-282.87 437.36,-274.91"/>
<polygon fill="black" stroke="black" points="440.79,-274.69 436.62,-264.95 433.8,-275.17 440.79,-274.69"/>
</g>
<!-- 11204949760 -->
<g id="node25" class="node">
<title>11204949760</title>
<polygon fill="lightgrey" stroke="black" points="604,-263.5 504,-263.5 504,-244.25 604,-244.25 604,-263.5"/>
<text text-anchor="middle" x="554" y="-250" font-family="monospace" font-size="10.00">AccumulateGrad</text>
</g>
<!-- 11204949760&#45;&gt;11204948896 -->
<g id="edge23" class="edge">
<title>11204949760&#45;&gt;11204948896</title>
<path fill="none" stroke="black" d="M535.82,-243.8C516.54,-234.18 485.84,-218.87 463.57,-207.76"/>
<polygon fill="black" stroke="black" points="465.52,-204.32 455.01,-202.98 462.39,-210.58 465.52,-204.32"/>
</g>
<!-- 10829113968 -->
<g id="node26" class="node">
<title>10829113968</title>
<polygon fill="lightblue" stroke="black" points="586,-330 522,-330 522,-299.5 586,-299.5 586,-330"/>
<text text-anchor="middle" x="554" y="-316.5" font-family="monospace" font-size="10.00">fc1.bias</text>
<text text-anchor="middle" x="554" y="-305.25" font-family="monospace" font-size="10.00"> (512)</text>
</g>
<!-- 10829113968&#45;&gt;11204949760 -->
<g id="edge24" class="edge">
<title>10829113968&#45;&gt;11204949760</title>
<path fill="none" stroke="black" d="M554,-299.2C554,-291.87 554,-282.87 554,-274.91"/>
<polygon fill="black" stroke="black" points="557.5,-274.95 554,-264.95 550.5,-274.95 557.5,-274.95"/>
</g>
<!-- 11204943808 -->
<g id="node27" class="node">
<title>11204943808</title>
<polygon fill="lightgrey" stroke="black" points="601,-141.75 501,-141.75 501,-122.5 601,-122.5 601,-141.75"/>
<text text-anchor="middle" x="551" y="-128.25" font-family="monospace" font-size="10.00">AccumulateGrad</text>
</g>
<!-- 11204943808&#45;&gt;11204948704 -->
<g id="edge25" class="edge">
<title>11204943808&#45;&gt;11204948704</title>
<path fill="none" stroke="black" d="M551,-122.33C551,-115.67 551,-106.24 551,-97.78"/>
<polygon fill="black" stroke="black" points="554.5,-97.86 551,-87.86 547.5,-97.86 554.5,-97.86"/>
</g>
<!-- 6437422640 -->
<g id="node28" class="node">
<title>6437422640</title>
<polygon fill="lightblue" stroke="black" points="592,-208.25 510,-208.25 510,-177.75 592,-177.75 592,-208.25"/>
<text text-anchor="middle" x="551" y="-194.75" font-family="monospace" font-size="10.00">fc2.weight</text>
<text text-anchor="middle" x="551" y="-183.5" font-family="monospace" font-size="10.00"> (101, 512)</text>
</g>
<!-- 6437422640&#45;&gt;11204943808 -->
<g id="edge26" class="edge">
<title>6437422640&#45;&gt;11204943808</title>
<path fill="none" stroke="black" d="M551,-177.45C551,-170.12 551,-161.12 551,-153.16"/>
<polygon fill="black" stroke="black" points="554.5,-153.2 551,-143.2 547.5,-153.2 554.5,-153.2"/>
</g>
<!-- 11204946784 -->
<g id="node29" class="node">
<title>11204946784</title>
<polygon fill="lightgrey" stroke="black" points="719,-141.75 619,-141.75 619,-122.5 719,-122.5 719,-141.75"/>
<text text-anchor="middle" x="669" y="-128.25" font-family="monospace" font-size="10.00">AccumulateGrad</text>
</g>
<!-- 11204946784&#45;&gt;11204948704 -->
<g id="edge27" class="edge">
<title>11204946784&#45;&gt;11204948704</title>
<path fill="none" stroke="black" d="M648.98,-122.09C630.34,-113.68 602.28,-101.02 580.97,-91.4"/>
<polygon fill="black" stroke="black" points="582.67,-87.88 572.12,-86.95 579.79,-94.26 582.67,-87.88"/>
</g>
<!-- 11205048528 -->
<g id="node30" class="node">
<title>11205048528</title>
<polygon fill="lightblue" stroke="black" points="701,-208.25 637,-208.25 637,-177.75 701,-177.75 701,-208.25"/>
<text text-anchor="middle" x="669" y="-194.75" font-family="monospace" font-size="10.00">fc2.bias</text>
<text text-anchor="middle" x="669" y="-183.5" font-family="monospace" font-size="10.00"> (101)</text>
</g>
<!-- 11205048528&#45;&gt;11204946784 -->
<g id="edge28" class="edge">
<title>11205048528&#45;&gt;11204946784</title>
<path fill="none" stroke="black" d="M669,-177.45C669,-170.12 669,-161.12 669,-153.16"/>
<polygon fill="black" stroke="black" points="672.5,-153.2 669,-143.2 665.5,-153.2 672.5,-153.2"/>
</g>
</g>
</svg>
